<svg xmlns="http://www.w3.org/2000/svg" viewBox="0 0 860 360" width="860" height="360" font-family="-apple-system, BlinkMacSystemFont, 'Segoe UI', Helvetica, Arial, sans-serif">
<rect x="0.5" y="0.5" width="859" height="359" rx="6" fill="#fcfcfb" stroke="#e1e0d9"/>
<line x1="20" x2="38" y1="21" y2="21" stroke="#eb6834" stroke-width="2"/><text x="44" y="25" font-size="12" fill="#52514e">Validation loss (3,000 clips, Common Voice + ISSAI dev)</text>
<rect x="62" y="70" width="95.5" height="238" fill="#f3f2ee"/><text x="109.75" y="61" text-anchor="middle" font-size="11.5" fill="#52514e">v6</text><text x="253" y="61" text-anchor="middle" font-size="11.5" fill="#52514e">v8</text><rect x="348.5" y="70" width="477.5" height="238" fill="#f3f2ee"/><text x="587.25" y="61" text-anchor="middle" font-size="11.5" fill="#52514e">v9</text><line x1="62" x2="826" y1="308" y2="308" stroke="#c3c2b7"/><text x="56" y="312" text-anchor="end" font-size="11" fill="#7d7b75">54.5</text><line x1="62" x2="826" y1="274" y2="274" stroke="#e1e0d9"/><text x="56" y="278" text-anchor="end" font-size="11" fill="#7d7b75">55.0</text><line x1="62" x2="826" y1="206" y2="206" stroke="#e1e0d9"/><text x="56" y="210" text-anchor="end" font-size="11" fill="#7d7b75">56.0</text><line x1="62" x2="826" y1="138" y2="138" stroke="#e1e0d9"/><text x="56" y="142" text-anchor="end" font-size="11" fill="#7d7b75">57.0</text><line x1="62" x2="826" y1="70" y2="70" stroke="#e1e0d9"/><text x="56" y="74" text-anchor="end" font-size="11" fill="#7d7b75">58.0</text><text x="109.75" y="324" text-anchor="middle" font-size="11" fill="#7d7b75">1</text><text x="205.25" y="324" text-anchor="middle" font-size="11" fill="#7d7b75">2</text><text x="300.75" y="324" text-anchor="middle" font-size="11" fill="#7d7b75">3</text><text x="396.25" y="324" text-anchor="middle" font-size="11" fill="#7d7b75">4</text><text x="491.75" y="324" text-anchor="middle" font-size="11" fill="#7d7b75">5</text><text x="587.25" y="324" text-anchor="middle" font-size="11" fill="#7d7b75">6</text><text x="682.75" y="324" text-anchor="middle" font-size="11" fill="#7d7b75">7</text><text x="778.25" y="324" text-anchor="middle" font-size="11" fill="#7d7b75">8</text><text x="444" y="344" text-anchor="middle" font-size="11" fill="#7d7b75">Epoch across the three runs</text><path d="M109.8,102.6L205.3,156.4L300.8,200.6L396.3,221.6L491.8,227.1L587.3,250.9L682.8,240.0L778.3,255.6" fill="none" stroke="#eb6834" stroke-width="2" stroke-linejoin="round" stroke-linecap="round"/><circle cx="109.75" cy="102.63999999999979" r="5" fill="#eb6834" stroke="#fcfcfb" stroke-width="2"/><text x="109.75" y="122.63999999999979" text-anchor="middle" font-size="11" fill="#52514e">57.52</text><circle cx="778.25" cy="255.6399999999998" r="5" fill="#eb6834" stroke="#fcfcfb" stroke-width="2"/><text x="778.25" y="275.63999999999976" text-anchor="middle" font-size="11" fill="#52514e">best: 55.27</text>
</svg>
